# Blender 4.1.0
# www.blender.org
mtllib tomato.mtl
o tomato
v 0.011850 0.116604 -0.011850
v -0.011850 0.116604 -0.011850
v 0.011850 0.116604 0.011850
v -0.011850 0.116604 0.011850
v 0.043511 0.137664 -0.000000
v 0.029178 0.122137 -0.007850
v 0.029178 0.122137 0.007850
v 0.007850 0.122137 0.029178
v -0.007850 0.122137 0.029178
v 0.000000 0.137664 0.043511
v -0.029178 0.122137 -0.007850
v -0.043511 0.137664 -0.000000
v -0.029178 0.122137 0.007850
v -0.007850 0.122137 -0.029178
v 0.007850 0.122137 -0.029178
v 0.000000 0.137664 -0.043511
v 0.004230 0.133004 -0.004230
v 0.004230 0.133004 0.004230
v -0.004230 0.133004 -0.004230
v -0.004230 0.133004 0.004230
v -0.006934 0.116604 -0.006934
v 0.006934 0.116604 -0.006934
v 0.006934 0.116604 0.006934
v -0.006934 0.116604 0.006934
vn 0.4945 -0.8692 -0.0000
vn 0.7348 -0.6783 -0.0000
vn -0.7348 0.6783 -0.0000
vn -0.4945 0.8692 -0.0000
vn -0.0000 -0.6783 0.7348
vn -0.0000 -0.8692 0.4945
vn -0.0000 0.8692 -0.4945
vn -0.0000 0.6783 -0.7348
vn -0.4945 -0.8692 -0.0000
vn -0.7348 -0.6783 -0.0000
vn 0.4945 0.8692 -0.0000
vn 0.7348 0.6783 -0.0000
vn -0.0000 -0.6783 -0.7348
vn -0.0000 -0.8692 -0.4945
vn -0.0000 0.8692 0.4945
vn -0.0000 0.6783 0.7348
vn -0.0000 1.0000 -0.0000
vn -0.0000 0.1627 -0.9867
vn 0.9867 0.1627 -0.0000
vn -0.0000 0.1627 0.9867
vn -0.9867 0.1627 -0.0000
vn 0.3042 -0.9526 -0.0000
vn 0.4940 -0.8695 -0.0000
vn -0.4940 0.8695 -0.0000
vn -0.3042 0.9526 -0.0000
vn -0.0000 -0.8695 0.4940
vn -0.0000 -0.9526 0.3042
vn -0.0000 0.9526 -0.3042
vn -0.0000 0.8695 -0.4940
vn -0.4940 -0.8695 -0.0000
vn -0.3042 -0.9526 -0.0000
vn 0.3042 0.9526 -0.0000
vn 0.4940 0.8695 -0.0000
vn -0.0000 -0.9526 -0.3042
vn -0.0000 -0.8695 -0.4940
vn -0.0000 0.9526 0.3042
vn -0.0000 0.8695 0.4940
vn -0.0001 0.8695 0.4940
vt -0.309055 4.312515
vt 0.309055 4.312515
vt -0.000000 5.144470
vt -0.000000 5.144470
vt -0.000000 5.144470
vt -0.000000 5.144470
vt -0.309055 4.312514
vt 0.309055 4.312514
vt 0.166525 -0.166525
vt -0.166525 0.166525
vt -0.166525 -0.166525
vt 0.166525 0.166525
vt 0.166525 5.139516
vt -0.272992 4.485127
vt 0.272992 4.485127
vt -0.166525 5.139516
vt -0.466535 1.840718
vt 0.309055 2.556851
vt -0.309055 2.556851
vt 0.466535 1.840718
vt -0.466535 -0.466535
vt -0.272992 -0.272992
vt -0.466535 0.466535
vt 0.466535 -0.466535
vt -0.272992 0.272992
vt 0.272992 -0.272992
vt 0.466535 0.466535
vt 0.272992 0.272992
s 0
usemtl green
f 7/1/1 6/2/1 5/3/2
f 5/3/3 6/2/4 7/1/4
f 10/4/5 9/1/6 8/2/6
f 8/2/7 9/1/7 10/4/8
f 13/2/9 12/5/10 11/1/9
f 11/1/11 12/5/12 13/2/11
f 16/6/13 15/7/14 14/8/14
f 14/8/15 15/7/15 16/6/16
f 19/9/17 18/10/17 17/11/17
f 18/10/17 19/9/17 20/12/17
f 19/13/18 22/14/18 21/15/18
f 22/14/18 19/13/18 17/16/18
f 17/13/19 23/14/19 22/15/19
f 23/14/19 17/13/19 18/16/19
f 18/13/20 24/14/20 23/15/20
f 24/14/20 18/13/20 20/16/20
f 24/15/21 19/16/21 21/14/21
f 19/16/21 24/15/21 20/13/21
f 3/17/22 6/18/23 7/19/23
f 6/18/23 3/17/22 1/20/22
f 7/19/24 6/18/24 3/17/25
f 1/20/25 3/17/25 6/18/24
f 8/18/26 4/17/27 3/20/27
f 4/17/27 8/18/26 9/19/26
f 3/20/28 4/17/28 8/18/29
f 9/19/29 8/18/29 4/17/28
f 13/18/30 2/17/31 4/20/31
f 2/17/31 13/18/30 11/19/30
f 4/20/32 2/17/32 13/18/33
f 11/19/33 13/18/33 2/17/32
f 2/20/34 15/19/35 1/17/34
f 15/19/35 2/20/34 14/18/35
f 1/17/36 15/19/37 2/20/36
f 14/18/38 2/20/36 15/19/37
f 1/21/17 22/22/17 3/23/17
f 22/22/17 1/21/17 2/24/17
f 23/25/17 3/23/17 22/22/17
f 22/22/17 2/24/17 21/26/17
f 3/23/17 23/25/17 4/27/17
f 21/26/17 2/24/17 24/28/17
f 4/27/17 23/25/17 24/28/17
f 4/27/17 24/28/17 2/24/17
o tomato.001
v 0.071100 0.019434 -0.000000
v 0.050275 0.019434 -0.050275
v 0.047400 -0.000000 -0.000000
v 0.033517 -0.000000 -0.033517
v -0.033517 -0.000000 -0.033517
v -0.050275 0.019434 -0.050275
v -0.047400 -0.000000 -0.000000
v -0.071100 0.019434 -0.000000
v -0.033517 0.000000 0.033517
v -0.050275 0.019434 0.050275
v 0.000000 0.019434 0.071100
v -0.000000 0.000000 0.047400
v 0.050275 0.019434 0.050275
v 0.033517 0.000000 0.033517
v 0.000000 0.019434 -0.071100
v -0.000000 -0.000000 -0.047400
v 0.084846 0.058302 -0.000000
v 0.059995 0.058302 0.059995
v 0.000000 0.058302 -0.084846
v 0.059995 0.058302 -0.059995
v -0.059995 0.058302 -0.059995
v 0.000000 0.058302 0.084846
v -0.084846 0.058302 -0.000000
v -0.059995 0.058302 0.059995
v -0.050275 0.097170 -0.050275
v 0.000000 0.097170 -0.071100
v 0.000000 0.097170 0.071100
v -0.050275 0.097170 0.050275
v -0.071100 0.097170 -0.000000
v 0.050275 0.097170 0.050275
v 0.033517 0.116604 0.033517
v -0.000000 0.116604 0.047400
v 0.050275 0.097170 -0.050275
v 0.033517 0.116604 -0.033517
v -0.000000 0.116604 -0.047400
v -0.033517 0.116604 -0.033517
v 0.071100 0.097170 -0.000000
v 0.047400 0.116604 -0.000000
v -0.033517 0.116604 0.033517
v -0.047400 0.116604 -0.000000
v 0.011850 0.116604 -0.011850
v -0.011850 0.116604 -0.011850
v 0.011850 0.116604 0.011850
v -0.011850 0.116604 0.011850
v 0.043511 0.137664 -0.000000
v 0.029178 0.122137 -0.007850
v 0.029178 0.122137 0.007850
v 0.007850 0.122137 0.029178
v -0.007850 0.122137 0.029178
v 0.000000 0.137664 0.043511
v -0.029178 0.122137 -0.007850
v -0.043511 0.137664 -0.000000
v -0.029178 0.122137 0.007850
v -0.007850 0.122137 -0.029178
v 0.007850 0.122137 -0.029178
v 0.000000 0.137664 -0.043511
v 0.004230 0.133004 -0.004230
v 0.004230 0.133004 0.004230
v -0.004230 0.133004 -0.004230
v -0.004230 0.133004 0.004230
v -0.006934 0.116604 -0.006934
v 0.006934 0.116604 -0.006934
v 0.006934 0.116604 0.006934
v -0.006934 0.116604 0.006934
vn 0.6341 -0.7733 -0.0000
vn 0.4484 -0.7733 -0.4483
vn -0.6341 -0.7733 -0.0000
vn -0.4484 -0.7733 -0.4483
vn -0.4484 -0.7733 0.4483
vn -0.4483 -0.7733 0.4484
vn -0.0000 -0.7733 0.6341
vn 0.4484 -0.7733 0.4483
vn 0.4483 -0.7733 0.4484
vn 0.4483 -0.7733 -0.4484
vn -0.0000 -0.7733 -0.6341
vn -0.0000 -1.0000 -0.0000
vn -0.4483 -0.7733 -0.4484
vn 0.9428 -0.3334 0.0001
vn 0.6667 -0.3334 0.6666
vn 0.0001 -0.3334 -0.9428
vn 0.6666 -0.3334 -0.6667
vn 0.9428 -0.3334 -0.0001
vn 0.6667 -0.3334 -0.6666
vn -0.6666 -0.3334 -0.6667
vn -0.0001 -0.3334 -0.9428
vn 0.6666 -0.3334 0.6667
vn 0.0001 -0.3334 0.9428
vn -0.6667 -0.3334 -0.6666
vn -0.9428 -0.3334 -0.0001
vn -0.6667 -0.3334 0.6666
vn -0.9428 -0.3334 0.0001
vn -0.0001 -0.3334 0.9428
vn -0.6666 -0.3334 0.6667
vn -0.6666 0.3334 -0.6667
vn -0.0001 0.3334 -0.9428
vn -0.0001 0.3334 0.9428
vn -0.6666 0.3334 0.6667
vn -0.9428 0.3334 0.0001
vn -0.6667 0.3334 0.6666
vn 0.4483 0.7733 0.4484
vn -0.0000 0.7733 0.6341
vn -0.0000 0.7733 -0.6341
vn 0.4483 0.7733 -0.4484
vn -0.4483 0.7733 -0.4484
vn 0.6341 0.7733 -0.0000
vn 0.4484 0.7733 0.4483
vn 0.4484 0.7733 -0.4483
vn -0.6341 0.7733 -0.0000
vn -0.4484 0.7733 0.4483
vn -0.9428 0.3334 -0.0001
vn -0.6667 0.3334 -0.6666
vn -0.4484 0.7733 -0.4483
vn 0.6666 0.3334 0.6667
vn 0.0001 0.3334 0.9428
vn -0.4483 0.7733 0.4484
vn 0.6667 0.3334 -0.6666
vn 0.9428 0.3334 -0.0001
vn 0.6667 0.3334 0.6666
vn 0.9428 0.3334 0.0001
vn 0.0001 0.3334 -0.9428
vn 0.6666 0.3334 -0.6667
vn -0.0000 1.0000 -0.0000
vn 0.4943 -0.8693 -0.0000
vn 0.7348 -0.6783 -0.0000
vn -0.7348 0.6783 -0.0000
vn -0.4943 0.8693 -0.0000
vn -0.0000 -0.6783 0.7348
vn -0.0000 -0.8693 0.4943
vn -0.0000 0.8693 -0.4943
vn -0.0000 0.6783 -0.7348
vn -0.4943 -0.8693 -0.0000
vn -0.7348 -0.6783 -0.0000
vn 0.4943 0.8693 -0.0000
vn 0.7348 0.6783 -0.0000
vn -0.0000 -0.6783 -0.7348
vn -0.0000 -0.8693 -0.4943
vn -0.0000 0.8693 0.4943
vn -0.0000 0.6783 0.7348
vn -0.0000 0.1627 -0.9867
vn 0.9867 0.1627 -0.0000
vn -0.0000 0.1627 0.9867
vn -0.9867 0.1627 -0.0000
vn 0.3042 -0.9526 -0.0000
vn 0.4942 -0.8693 -0.0000
vn -0.4942 0.8693 -0.0000
vn -0.3042 0.9526 -0.0000
vn -0.0000 -0.8693 0.4942
vn -0.0000 -0.9526 0.3042
vn -0.0000 0.9526 -0.3042
vn -0.0000 0.8693 -0.4942
vn -0.4942 -0.8693 -0.0000
vn -0.3042 -0.9526 -0.0000
vn 0.3042 0.9526 -0.0000
vn 0.4942 0.8693 -0.0000
vn -0.0000 -0.9526 -0.3042
vn -0.0000 -0.8693 -0.4942
vn -0.0000 0.9526 0.3042
vn -0.0000 0.8693 0.4942
vt -0.714141 1.289451
vt 1.071212 2.442068
vt -1.071212 2.442068
vt 0.714141 1.289451
vt 1.319561 1.319561
vt 1.319561 -1.319561
vt 1.866142 -0.000000
vt -0.000000 1.866142
vt -0.000000 -1.866142
vt -1.319561 1.319561
vt -1.319561 -1.319561
vt -1.866142 -0.000000
vt 1.278313 3.140330
vt -1.071212 1.530482
vt 1.071212 1.530482
vt -1.278313 3.140330
vt 1.071212 2.833203
vt -1.278313 1.223356
vt 1.278313 1.223356
vt -1.071212 2.833203
vt 0.714141 1.757904
vt -1.071212 0.605286
vt 1.071212 0.605286
vt -0.714141 1.757904
vt 0.000000 -1.866142
vt -0.466535 -0.466535
vt 0.466535 -0.466535
vt -0.466535 0.466535
vt 0.000000 1.866142
vt 0.466535 0.466535
vt -0.309055 4.312515
vt 0.309055 4.312515
vt -0.000000 5.144470
vt -0.000000 5.144470
vt -0.000000 5.144470
vt -0.000000 5.144470
vt -0.309055 4.312514
vt 0.309055 4.312514
vt 0.166525 -0.166525
vt -0.166525 0.166525
vt -0.166525 -0.166525
vt 0.166525 0.166525
vt 0.166525 5.139516
vt -0.272992 4.485127
vt 0.272992 4.485127
vt -0.166525 5.139516
vt -0.466535 1.840718
vt 0.309055 2.556851
vt -0.309055 2.556851
vt 0.466535 1.840718
vt -0.272992 -0.272992
vt -0.272992 0.272992
vt 0.272992 -0.272992
vt 0.272992 0.272992
s 0
usemtl red.001
f 27/29/39 26/30/40 25/31/39
f 26/30/40 27/29/39 28/32/40
f 31/32/41 30/31/42 29/29/42
f 30/31/42 31/32/41 32/30/41
f 34/30/43 31/29/41 33/32/43
f 31/29/41 34/30/43 32/31/41
f 34/31/44 36/32/45 35/30/45
f 36/32/45 34/31/44 33/29/44
f 37/31/46 27/32/39 25/30/39
f 27/32/39 37/31/46 38/29/46
f 35/31/45 38/32/47 37/30/47
f 38/32/47 35/31/45 36/29/45
f 28/29/48 39/30/49 26/31/48
f 39/30/49 28/29/48 40/32/49
f 38/33/50 28/34/50 27/35/50
f 28/34/50 38/33/50 36/36/50
f 28/34/50 36/36/50 40/37/50
f 40/37/50 36/36/50 33/38/50
f 40/37/50 33/38/50 29/39/50
f 29/39/50 33/38/50 31/40/50
f 40/29/49 30/30/51 39/31/49
f 30/30/51 40/29/49 29/32/51
f 41/41/52 37/42/53 25/43/52
f 37/42/53 41/41/52 42/44/53
f 43/41/54 26/42/55 39/43/54
f 26/42/55 43/41/54 44/44/55
f 41/44/56 26/43/57 44/41/57
f 26/43/57 41/44/56 25/42/56
f 45/41/58 39/42/59 30/43/58
f 39/42/59 45/41/58 43/44/59
f 42/41/60 35/42/61 37/43/60
f 35/42/61 42/41/60 46/44/61
f 30/42/62 47/41/63 45/44/62
f 47/41/63 30/42/62 32/43/63
f 34/43/64 47/44/65 32/42/65
f 47/44/65 34/43/64 48/41/64
f 46/41/66 34/42/67 35/43/66
f 34/42/67 46/41/66 48/44/67
f 49/45/68 43/46/69 45/47/68
f 43/46/69 49/45/68 50/48/69
f 51/45/70 48/46/71 46/47/70
f 48/46/71 51/45/70 52/48/71
f 47/46/72 52/45/73 53/48/72
f 52/45/73 47/46/72 48/47/73
f 55/49/74 51/50/75 54/51/74
f 51/50/75 55/49/74 56/52/75
f 50/51/76 58/52/77 57/50/77
f 58/52/77 50/51/76 59/49/76
f 49/51/78 59/52/76 50/50/76
f 59/52/76 49/51/78 60/49/78
f 62/49/79 54/50/80 61/51/79
f 54/50/80 62/49/79 55/52/80
f 57/51/81 62/52/79 61/50/79
f 62/52/79 57/51/81 58/49/81
f 64/52/82 52/51/83 63/49/83
f 52/51/83 64/52/82 53/50/82
f 47/47/84 49/48/85 45/46/85
f 49/48/85 47/47/84 53/45/84
f 49/50/86 64/49/82 60/52/86
f 64/49/82 49/50/86 53/51/82
f 54/45/87 46/46/88 42/47/87
f 46/46/88 54/45/87 51/48/88
f 56/49/75 52/50/89 51/51/75
f 52/50/89 56/49/75 63/52/89
f 57/45/90 41/46/91 44/47/90
f 41/46/91 57/45/90 61/48/91
f 54/48/92 41/47/93 61/45/93
f 41/47/93 54/48/92 42/46/92
f 50/45/94 44/46/95 43/47/94
f 44/46/95 50/45/94 57/48/95
f 58/39/96 55/38/96 62/40/96
f 55/38/96 58/39/96 59/53/96
f 55/38/96 59/53/96 65/54/96
f 65/54/96 59/53/96 66/55/96
f 67/56/96 55/38/96 65/54/96
f 55/38/96 67/56/96 56/57/96
f 66/55/96 59/53/96 60/34/96
f 56/57/96 67/56/96 68/58/96
f 66/55/96 60/34/96 68/58/96
f 56/57/96 68/58/96 63/33/96
f 63/33/96 68/58/96 60/34/96
f 63/33/96 60/34/96 64/35/96
usemtl green.001
f 71/59/97 70/60/97 69/61/98
f 69/61/99 70/60/100 71/59/100
f 74/62/101 73/59/102 72/60/102
f 72/60/103 73/59/103 74/62/104
f 77/60/105 76/63/106 75/59/105
f 75/59/107 76/63/108 77/60/107
f 80/64/109 79/65/110 78/66/110
f 78/66/111 79/65/111 80/64/112
f 83/67/96 82/68/96 81/69/96
f 82/68/96 83/67/96 84/70/96
f 83/71/113 86/72/113 85/73/113
f 86/72/113 83/71/113 81/74/113
f 81/71/114 87/72/114 86/73/114
f 87/72/114 81/71/114 82/74/114
f 82/71/115 88/72/115 87/73/115
f 88/72/115 82/71/115 84/74/115
f 88/73/116 83/74/116 85/72/116
f 83/74/116 88/73/116 84/71/116
f 67/75/117 70/76/118 71/77/118
f 70/76/118 67/75/117 65/78/117
f 71/77/119 70/76/119 67/75/120
f 65/78/120 67/75/120 70/76/119
f 72/76/121 68/75/122 67/78/122
f 68/75/122 72/76/121 73/77/121
f 67/78/123 68/75/123 72/76/124
f 73/77/124 72/76/124 68/75/123
f 77/76/125 66/75/126 68/78/126
f 66/75/126 77/76/125 75/77/125
f 68/78/127 66/75/127 77/76/128
f 75/77/128 77/76/128 66/75/127
f 66/78/129 79/77/130 65/75/129
f 79/77/130 66/78/129 78/76/130
f 65/75/131 79/77/132 66/78/131
f 78/76/132 66/78/131 79/77/132
f 65/54/96 86/79/96 67/56/96
f 86/79/96 65/54/96 66/55/96
f 87/80/96 67/56/96 86/79/96
f 86/79/96 66/55/96 85/81/96
f 67/56/96 87/80/96 68/58/96
f 85/81/96 66/55/96 88/82/96
f 68/58/96 87/80/96 88/82/96
f 68/58/96 88/82/96 66/55/96
